<?xml version="1.0" encoding="utf-8"?>
<!-- Generator: Adobe Illustrator 21.0.2, SVG Export Plug-In . SVG Version: 6.00 Build 0)  -->
<svg version="1.1" id="Layer_1" xmlns="http://www.w3.org/2000/svg" xmlns:xlink="http://www.w3.org/1999/xlink" x="0px" y="0px"
	 viewBox="0 0 18.10625 20" style="enable-background:new 0 0 18.10625 20;" xml:space="preserve">
<style type="text/css">
	.st0{fill:#858585;}
</style>
<g>
	<path class="st0" d="M6,8.55486H4v2h2V8.55486z M10,8.55486H8v2h2V8.55486z M14,8.55486h-2v2h2V8.55486z M16,2h-0.89375V0h-2v2h-8
		V0h-2v2H2C0.89,2,0.01,2.67743,0.01,3.77743L0,17.88872C0,18.98872,0.89,20,2,20h14c1.1,0,2.10625-1.34514,2.10625-2.44514v-14
		C18.10625,2.45486,17.1,2,16,2z M16.10625,18h-14V7h14V18z"/>
	<rect x="4" y="12.55486" class="st0" width="2" height="2"/>
	<rect x="8" y="12.55486" class="st0" width="2" height="2"/>
	<rect x="12" y="12.55486" class="st0" width="2" height="2"/>
</g>
</svg>
