<?xml version="1.0" encoding="utf-8"?>
<!-- Generator: Adobe Illustrator 21.0.2, SVG Export Plug-In . SVG Version: 6.00 Build 0)  -->
<svg version="1.1" id="Layer_1" xmlns="http://www.w3.org/2000/svg" xmlns:xlink="http://www.w3.org/1999/xlink" x="0px" y="0px"
	 viewBox="0 0 116.60645 20" style="enable-background:new 0 0 116.60645 20;" xml:space="preserve">
<style type="text/css">
	.st0{fill:#FFFFFF;}
</style>
<g>
	<path class="st0" d="M19.35705,19.74845c1.57528,0,2.85691-1.28162,2.85691-2.8569c0-0.82967-0.35551-1.60528-0.98049-2.15003
		l2.03105-4.80961c0.25799,0.0747,0.52126,0.11251,0.78484,0.11251c0.38906,0,0.76534-0.07772,1.12134-0.23136l2.06584,4.89225
		c-0.65265,0.54597-1.02401,1.33475-1.02401,2.18623c0,1.57528,1.28157,2.8569,2.85684,2.8569
		c1.57528,0,2.8569-1.28162,2.8569-2.8569c0-1.57533-1.28163-2.85696-2.8569-2.85696c-0.04592,0-0.09302,0.00123-0.14085,0.00376
		L26.5946,8.48275c0.20413-0.39994,0.31166-0.84577,0.31166-1.29528c0-1.57527-1.28163-2.85684-2.8569-2.85684
		c-1.57528,0-2.8569,1.28156-2.8569,2.85684c0,0.61048,0.19005,1.18947,0.55077,1.68152l-2.18175,5.17422
		c-0.07187-0.00578-0.1395-0.00861-0.20444-0.00861c-1.57528,0-2.85689,1.28163-2.85689,2.85696
		C16.50015,18.46683,17.78177,19.74845,19.35705,19.74845z M29.06937,15.41048c0.8167,0,1.48108,0.66439,1.48108,1.48108
		c0,0.81663-0.66438,1.48102-1.48108,1.48102c-0.81662,0-1.48101-0.66439-1.48101-1.48102
		C27.58836,16.07487,28.25275,15.41048,29.06937,15.41048z M24.04936,5.70646c0.81662,0,1.48101,0.66438,1.48101,1.48101
		c0,0.81668-0.66439,1.48108-1.48101,1.48108c-0.81663,0-1.48102-0.66439-1.48102-1.48108
		C22.56834,6.37084,23.23273,5.70646,24.04936,5.70646z M19.35705,15.41048c0.81663,0,1.48102,0.66439,1.48102,1.48108
		c0,0.81663-0.66439,1.48102-1.48102,1.48102c-0.81668,0-1.48108-0.66439-1.48108-1.48102
		C17.87597,16.07487,18.54036,15.41048,19.35705,15.41048z"/>
	<path class="st0" d="M8.12192,5.99637c1.40762,0,2.75085,0.46586,3.88221,1.34545c0.20173,0.16206,0.46469,0.23192,0.71954,0.19152
		c0.23886-0.03634,0.4575-0.1668,0.57646-0.34272c0.15931-0.16753,0.24004-0.39392,0.22768-0.63967
		c-0.01353-0.2763-0.14584-0.53694-0.36755-0.71874c-1.43681-1.10682-3.22617-1.71638-5.04062-1.71638
		C3.56654,4.13821,0,7.6408,0,12.08983c0,4.35016,3.64346,7.88921,8.12192,7.88921c1.83056,0,3.61795-0.60082,5.02857-1.68859
		c0.21881-0.15894,0.35833-0.42172,0.37314-0.70258c0.0134-0.24347-0.06917-0.47761-0.22711-0.6457
		c-0.12463-0.18199-0.31253-0.30945-0.52969-0.35937c-0.26402-0.06315-0.54733-0.0045-0.79756,0.16471l-0.01624,0.0123
		c-1.02026,0.86329-2.38083,1.33874-3.83111,1.33874c-3.44155,0-6.24144-2.6955-6.24144-6.00874
		C1.88047,8.72987,4.68037,5.99637,8.12192,5.99637z"/>
	<path class="st0" d="M40.01565,4.32758h-4.18851c-0.50399,0-0.92976,0.42559-0.92976,0.92932v13.79238
		c0,0.50398,0.42577,0.92975,0.92976,0.92975c0.52451,0,0.95121-0.4171,0.95121-0.92975v-5.40023l3.2373-0.03751
		c2.55384,0,4.63149-2.07765,4.63149-4.63149C44.64714,6.41464,42.5695,4.32758,40.01565,4.32758z M40.01429,11.77343h-3.23595
		V6.20812h3.2373c1.52847,0,2.77198,1.24351,2.77198,2.77193C42.78763,10.50115,41.54247,11.75424,40.01429,11.77343z"/>
	<path class="st0" d="M57.37856,4.32758h-9.94215c-0.50397,0-0.92975,0.42559-0.92975,0.92932
		c0,0.52451,0.4171,0.95121,0.92975,0.95121h4.04108v12.84117c0,0.50398,0.42577,0.92975,0.92976,0.92975
		c0.50398,0,0.92982-0.42577,0.92982-0.92975V6.20812h4.0415c0.51265,0,0.92975-0.4267,0.92975-0.95121
		C58.30832,4.75317,57.88255,4.32758,57.37856,4.32758z"/>
	<path class="st0" d="M62.69844,4.32758c-0.50373,0-0.92933,0.42559-0.92933,0.92932v13.79238
		c0,0.50398,0.42559,0.92975,0.92933,0.92975c0.52446,0,0.95115-0.4171,0.95115-0.92975V5.25691
		C63.64959,4.74449,63.22289,4.32758,62.69844,4.32758z"/>
	<path class="st0" d="M87.31776,4.32758c-0.50398,0-0.92976,0.42559-0.92976,0.92932v13.79238
		c0,0.50398,0.42577,0.92975,0.92976,0.92975c0.52422,0,0.95071-0.4171,0.95071-0.92975V5.25691
		C88.26847,4.74449,87.84197,4.32758,87.31776,4.32758z"/>
	<path class="st0" d="M101.85461,12.30987c-0.95588-0.64398-2.25294-1.10775-3.96342-1.41743
		c-1.35528-0.25787-2.36908-0.61263-3.01313-1.05445c-0.63408-0.43487-0.89969-0.85653-0.9166-1.44991
		c0-0.61551,0.35139-1.21546,0.98652-1.68742c0.72021-0.51474,1.73328-0.80998,2.77948-0.80998
		c1.54429,0,2.80815,0.82738,3.81992,1.48969c0.19632,0.13711,0.44477,0.18709,0.68246,0.13723
		c0.23334-0.05017,0.43475-0.19158,0.55003-0.38385c0.26592-0.41851,0.15948-0.9482-0.2522-1.23521
		c-1.21258-0.79424-2.72176-1.78271-4.80022-1.78271c-1.43687,0-2.79449,0.41182-3.8228,1.15959
		c-1.10787,0.80593-1.71804,1.91141-1.71804,3.11267c0,1.17163,0.60783,2.21304,1.709,2.93075
		c0.88389,0.59572,2.09137,1.02518,3.68945,1.31255c1.43607,0.27421,2.53638,0.65811,3.26761,1.13941
		c0.71635,0.48996,1.02199,0.99309,1.02199,1.68237c0,0.69164-0.38913,1.35178-1.09755,1.86025
		c-0.76879,0.56658-1.88398,0.89127-3.06059,0.89127c-0.00147,0-0.00314,0-0.00455,0c-2.12616,0-4.00105-1.37447-4.53066-1.80067
		c-0.17683-0.15567-0.40475-0.23179-0.64583-0.21371c-0.24285,0.02096-0.46155,0.13876-0.61353,0.32887l-0.00603,0.00738
		c-0.29132,0.37395-0.23586,0.91808,0.12622,1.23884L92.05,17.77196c1.03619,0.82191,3.15694,2.20425,5.71983,2.22804
		c1.5064,0,2.94659-0.44163,4.05521-1.24351c1.17305-0.84878,1.84587-2.05281,1.84587-3.30333
		C103.67091,14.19096,103.02593,13.07473,101.85461,12.30987z"/>
	<path class="st0" d="M115.6767,18.09856h-6.66452v-4.99475h5.77607c0.50398,0,0.92976-0.42559,0.92976-0.92932
		c0-0.52446-0.41711-0.95115-0.92976-0.95115h-5.77607V6.20812h6.66452c0.53004,0,0.92976-0.40893,0.92976-0.95121
		c0-0.52113-0.40839-0.92932-0.92976-0.92932h-7.61525c-0.50397,0-0.92975,0.42559-0.92975,0.92932v13.79238
		c0,0.48855,0.36632,0.88758,0.85209,0.92816l0.00788,0.00067l7.68503,0.00093c0.52137,0,0.92976-0.40837,0.92976-0.92975
		C116.60645,18.5073,116.20674,18.09856,115.6767,18.09856z"/>
	<path class="st0" d="M69.37676,9.92081c0.06783,0.1567,0.13567,0.31341,0.20351,0.47012
		c0.17625,0.40713,0.35249,0.81424,0.52873,1.22137c0.24414,0.56398,0.48829,1.12797,0.73244,1.69194
		c0.27155,0.6273,0.54311,1.25458,0.81465,1.88187c0.25847,0.59704,0.51692,1.19408,0.77538,1.79112
		c0.20487,0.47325,0.40973,0.94648,0.6146,1.41972c0.12784,0.29531,0.25925,0.58934,0.37909,0.88793
		c0.06679,0.1664,0.14909,0.33305,0.28596,0.45308c0.36111,0.31668,1.10011,0.29292,1.39964-0.09752
		c0.06813-0.08882,0.11549-0.19153,0.16226-0.29329c0.35539-0.77314,0.71114-1.54611,1.05856-2.32254
		c0.28855-0.64486,0.5752-1.29058,0.86099-1.93666c0.32205-0.72802,0.64295-1.45656,0.96321-2.18539
		c0.33201-0.75556,0.66328-1.51145,0.99409-2.26756c0.31829-0.72755,0.63612-1.4553,0.95359-2.18321
		c0.28088-0.644,0.56146-1.28812,0.8418-1.93235c0.21971-0.5049,0.43925-1.00987,0.65864-1.51492
		c0.13477-0.3103,0.26951-0.62063,0.40412-0.93099c0.03113-0.07175,0.06224-0.14349,0.09335-0.21524l0.92066,0.41505
		c0.13248,0.05973,0.27979-0.04753,0.26174-0.19058l-0.49467-3.92112c-0.01731-0.13717-0.17528-0.20735-0.29021-0.12892
		l-3.2637,2.22676c-0.11911,0.08126-0.10317,0.26014,0.02847,0.31948l0.9248,0.41692l-5.77845,13.27062l-4.07939-9.42347
		c-0.16403-0.37888-0.64327-0.56222-1.10832-0.45212c-0.34763,0.04628-0.66346,0.26408-0.81339,0.60601l-1.56944,3.54989
		c-0.21985,0.49727-0.01038,1.07808,0.47781,1.3249c0.53104,0.26848,1.18073,0.03855,1.41969-0.50245L69.37676,9.92081z"/>
</g>
</svg>
