<?xml version="1.0" encoding="utf-8"?>
<!-- Generator: Adobe Illustrator 21.0.1, SVG Export Plug-In . SVG Version: 6.00 Build 0)  -->
<svg version="1.1" id="Layer_1" xmlns="http://www.w3.org/2000/svg" xmlns:xlink="http://www.w3.org/1999/xlink" x="0px" y="0px"
	 viewBox="0 0 65 65" style="enable-background:new 0 0 65 65;" xml:space="preserve">
<style type="text/css">
	.st0{fill:#EF3A3A;}
</style>
<g>
	<g>
		<path class="st0" d="M20.26,40.5L32.5,28.26L44.74,40.5l3.76-3.76l-16-16l-16,16L20.26,40.5z"/>
	</g>
	<path class="st0" d="M32.5,65C14.57959,65,0,50.4209,0,32.5C0,14.57959,14.57959,0,32.5,0C50.4209,0,65,14.57959,65,32.5
		C65,50.4209,50.4209,65,32.5,65z M32.5,5C17.33643,5,5,17.33643,5,32.5C5,47.66309,17.33643,60,32.5,60
		C47.66309,60,60,47.66309,60,32.5C60,17.33643,47.66309,5,32.5,5z"/>
</g>
</svg>
