<?xml version="1.0" encoding="utf-8"?>
<!-- Generator: Adobe Illustrator 21.1.0, SVG Export Plug-In . SVG Version: 6.00 Build 0)  -->
<svg version="1.1" id="Layer_1" xmlns="http://www.w3.org/2000/svg" xmlns:xlink="http://www.w3.org/1999/xlink" x="0px" y="0px"
	 viewBox="0 0 16 22" style="enable-background:new 0 0 16 22;" xml:space="preserve">
<style type="text/css">
	.st0{fill:#858585;}
</style>
<path class="st0" d="M8,5v3l4-4L8,0v3c-4.4,0-8,3.6-8,8c0,1.6,0.5,3,1.2,4.3l1.5-1.5C2.2,13,2,12,2,11C2,7.7,4.7,5,8,5z M14.8,6.7
	l-1.5,1.5C13.7,9,14,10,14,11c0,3.3-2.7,6-6,6v-3l-4,4l4,4v-3c4.4,0,8-3.6,8-8C16,9.4,15.5,8,14.8,6.7z"/>
</svg>
