<?xml version="1.0" encoding="utf-8"?>
<!-- Generator: Adobe Illustrator 21.0.0, SVG Export Plug-In . SVG Version: 6.00 Build 0)  -->
<svg version="1.1" id="Layer_1" xmlns="http://www.w3.org/2000/svg" xmlns:xlink="http://www.w3.org/1999/xlink" x="0px" y="0px"
	 viewBox="0 0 20 20" style="enable-background:new 0 0 20 20;" xml:space="preserve">
<path d="M10,3.5c-4.3,0-8,2.7-9.5,6.5c1.5,3.8,5.2,6.5,9.5,6.5s8-2.7,9.5-6.5C18,6.2,14.3,3.5,10,3.5z M10,14.3
	c-2.4,0-4.3-1.9-4.3-4.3S7.6,5.7,10,5.7s4.3,1.9,4.3,4.3S12.4,14.3,10,14.3z M10,7.4c-1.4,0-2.6,1.2-2.6,2.6s1.2,2.6,2.6,2.6
	s2.6-1.2,2.6-2.6S11.4,7.4,10,7.4z"/>
</svg>
