<?xml version="1.0" encoding="utf-8"?>
<!-- Generator: Adobe Illustrator 21.0.1, SVG Export Plug-In . SVG Version: 6.00 Build 0)  -->
<svg version="1.1" id="Layer_1" xmlns="http://www.w3.org/2000/svg" xmlns:xlink="http://www.w3.org/1999/xlink" x="0px" y="0px"
	 viewBox="0 0 65 65" style="enable-background:new 0 0 65 65;" xml:space="preserve">
<style type="text/css">
	.st0{fill:#333334;}
</style>
<g>
	<path class="st0" d="M32.5,65C14.57959,65,0,50.4209,0,32.5C0,14.57959,14.57959,0,32.5,0C50.4209,0,65,14.57959,65,32.5
		C65,50.4209,50.4209,65,32.5,65z M32.5,5C17.33643,5,5,17.33643,5,32.5C5,47.66309,17.33643,60,32.5,60
		C47.66309,60,60,47.66309,60,32.5C60,17.33643,47.66309,5,32.5,5z"/>
</g>
<g>
	<rect x="10.5" y="29.5" transform="matrix(-1.836970e-16 1 -1 -1.836970e-16 59 6)" class="st0" width="32" height="6"/>
	<rect x="22.5" y="29.5" transform="matrix(-1.836970e-16 1 -1 -1.836970e-16 71 -6)" class="st0" width="32" height="6"/>
</g>
</svg>
