<?xml version="1.0" encoding="utf-8"?>
<!-- Generator: Adobe Illustrator 21.1.0, SVG Export Plug-In . SVG Version: 6.00 Build 0)  -->
<svg version="1.1" id="Layer_1" xmlns="http://www.w3.org/2000/svg" xmlns:xlink="http://www.w3.org/1999/xlink" x="0px" y="0px"
	 viewBox="0 0 86.6 67" style="enable-background:new 0 0 86.6 67;" xml:space="preserve">
<style type="text/css">
	.st0{fill:#FFFFFF;}
</style>
<path class="st0" d="M85.6,7.3L85.6,7.3c0.6-0.8,1-1.7,1-2.8c0-2.5-2-4.5-4.5-4.5c-1.5,0-2.7,0.7-3.6,1.8l0,0L31,45.6L9.3,34.4
	c-0.1-0.1-0.2-0.1-0.4-0.2l-0.1-0.1l0,0C8.6,34,8.4,34,8.2,33.9l-0.1,0v0c-0.6-0.2-1.2-0.3-1.9-0.3c-3.4,0-6.2,2.8-6.2,6.2
	c0,1.9,0.9,3.6,2.3,4.8l0,0l0,0c0,0,0,0,0,0l23.4,19.5c0.4,0.5,0.9,0.9,1.5,1.2l0,0l0,0c1.5,1,3.4,1.7,5.4,1.7
	c2.7,0,5.1-1.1,6.8-2.8l0,0l0.3-0.4c0.3-0.3,0.5-0.6,0.7-0.9L85.6,7.3z"/>
</svg>
